<svg width="14" height="14" viewBox="0 0 14 14" fill="none" xmlns="http://www.w3.org/2000/svg">
<g clip-path="url(#clip0_330_329)">
<path d="M8.16665 7.58333C8.16758 7.78835 8.11446 7.98999 8.01266 8.16794C7.91085 8.34589 7.76395 8.49388 7.58675 8.59698C7.40955 8.70009 7.20831 8.75469 7.00329 8.75527C6.79828 8.75585 6.59673 8.70239 6.41895 8.60029C6.24117 8.49818 6.09344 8.35103 5.99063 8.17366C5.88782 7.99628 5.83356 7.79495 5.83333 7.58993C5.83309 7.38492 5.88689 7.18346 5.9893 7.00585C6.0917 6.82825 6.2391 6.68076 6.41665 6.57825V3.5H7.58332V6.57825C7.76014 6.67993 7.90711 6.82631 8.0095 7.00272C8.11188 7.17913 8.16608 7.37937 8.16665 7.58333ZM11.7016 3.23108C12.5516 4.14621 13.116 5.28947 13.3256 6.52067C13.5352 7.75188 13.381 9.0175 12.8819 10.1623C12.3827 11.3072 11.5603 12.2815 10.5155 12.9657C9.47069 13.65 8.24891 14.0144 6.99998 14.0144C5.75106 14.0144 4.52928 13.65 3.48447 12.9657C2.43967 12.2815 1.61726 11.3072 1.1181 10.1623C0.618933 9.0175 0.464718 7.75188 0.674361 6.52067C0.884005 5.28947 1.44839 4.14621 2.29832 3.23108L1.72782 2.597L1.21448 3.11033L0.389648 2.2855L2.28548 0.389667L3.11032 1.2145L2.55382 1.771L3.16515 2.45C4.11144 1.73812 5.23739 1.30402 6.41665 1.19642V0H7.58332V1.19642C8.76258 1.30402 9.88853 1.73812 10.8348 2.45L11.4461 1.77042L10.9258 1.25067L11.7512 0.425833L13.6103 2.2855L12.7855 3.11033L12.2722 2.597L11.7016 3.23108ZM12.25 7.58333C12.25 6.54498 11.9421 5.52995 11.3652 4.66659C10.7883 3.80323 9.96838 3.13033 9.00907 2.73297C8.04976 2.33561 6.99416 2.23164 5.97576 2.43421C4.95736 2.63678 4.0219 3.1368 3.28767 3.87102C2.55345 4.60525 2.05343 5.54071 1.85086 6.55911C1.64829 7.57751 1.75225 8.63311 2.14961 9.59242C2.54697 10.5517 3.21988 11.3717 4.08324 11.9486C4.9466 12.5254 5.96163 12.8333 6.99998 12.8333C8.3919 12.8318 9.72636 12.2782 10.7106 11.2939C11.6948 10.3097 12.2484 8.97525 12.25 7.58333Z" fill="white"/>
</g>
<defs>
<clipPath id="clip0_330_329">
<rect width="14" height="14" fill="white"/>
</clipPath>
</defs>
</svg>
